<svg width="32" height="32" viewBox="0 0 32 32" fill="none" xmlns="http://www.w3.org/2000/svg">
<path d="M4.17154 1.34311C3.39049 0.562062 2.12416 0.562062 1.34311 1.34311C0.562062 2.12416 0.562062 3.39049 1.34311 4.17154L4.17154 1.34311ZM27.8284 30.6568C28.6094 31.4379 29.8758 31.4379 30.6568 30.6568C31.4379 29.8758 31.4379 28.6094 30.6568 27.8284L27.8284 30.6568ZM30.6568 4.17154C31.4379 3.39049 31.4379 2.12416 30.6568 1.34311C29.8758 0.562062 28.6094 0.562062 27.8284 1.34311L30.6568 4.17154ZM1.34311 27.8284C0.562062 28.6094 0.562062 29.8758 1.34311 30.6568C2.12416 31.4379 3.39049 31.4379 4.17154 30.6568L1.34311 27.8284ZM1.34311 4.17154L14.5858 17.4142L17.4142 14.5858L4.17154 1.34311L1.34311 4.17154ZM14.5858 17.4142L27.8284 30.6568L30.6568 27.8284L17.4142 14.5858L14.5858 17.4142ZM27.8284 1.34311L14.5858 14.5858L17.4142 17.4142L30.6568 4.17154L27.8284 1.34311ZM14.5858 14.5858L1.34311 27.8284L4.17154 30.6568L17.4142 17.4142L14.5858 14.5858Z" fill="white" fill-opacity="0.4"/>
</svg>
